<svg width="473" height="435" viewBox="0 0 473 435" fill="none" xmlns="http://www.w3.org/2000/svg">
<path d="M459.209 408.046C475.616 383.275 474.913 343.598 457.637 319.424L294.864 91.6604C264.684 49.4309 201.549 50.5509 172.886 93.8242L18.2939 327.218C1.88661 351.989 2.59048 391.666 19.866 415.839C37.1416 440.013 64.4472 439.528 80.8551 414.758L156.136 301.103C199.939 234.972 272.835 233.679 318.955 298.214L398.22 409.128C415.496 433.301 442.801 432.816 459.209 408.046Z" fill="url(#paint0_linear_117_11)"/>
<path d="M307.421 284.573C308.287 285.78 309.347 286.65 310.293 287.739C311.039 288.609 311.773 289.498 312.505 290.393C314.634 292.971 316.734 295.63 318.765 298.463L398.127 409.172C415.424 433.301 442.766 432.816 459.196 408.089C475.626 383.362 474.924 343.756 457.627 319.627L294.653 92.2815C264.396 50.0729 201.258 51.193 172.516 94.4482L17.7082 327.431C76.1181 239.525 215.05 155.717 307.421 284.573Z" fill="url(#paint1_linear_117_11)"/>
<defs>
<linearGradient id="paint0_linear_117_11" x1="269.73" y1="316.683" x2="-374.778" y2="753.194" gradientUnits="userSpaceOnUse">
<stop stop-color="#A00B64"/>
<stop offset="1" stop-color="#1C1F9D"/>
</linearGradient>
<linearGradient id="paint1_linear_117_11" x1="262.278" y1="354.935" x2="880.528" y2="687.867" gradientUnits="userSpaceOnUse">
<stop stop-color="#1C1F9D"/>
<stop offset="1" stop-color="#A00B64"/>
<stop offset="1" stop-color="#680E6F"/>
</linearGradient>
</defs>
</svg>
