<svg width="142" height="32" viewBox="0 0 142 32" fill="none" xmlns="http://www.w3.org/2000/svg">
<path d="M75.141 22.3166C75.7449 21.4049 75.719 19.9445 75.0832 19.0548L69.0923 10.672C67.9815 9.11776 65.6579 9.15898 64.6029 10.7517L58.9132 19.3417C58.3093 20.2534 58.3352 21.7137 58.971 22.6034C59.6069 23.4931 60.6118 23.4753 61.2157 22.5636L63.9865 18.3805C65.5986 15.9466 68.2815 15.899 69.979 18.2742L72.8963 22.3564C73.5322 23.2461 74.5371 23.2282 75.141 22.3166Z" fill="url(#paint0_linear_5_105097)"/>
<path d="M69.5545 17.7721C69.5863 17.8165 69.6254 17.8486 69.6602 17.8887C69.6876 17.9207 69.7146 17.9534 69.7416 17.9863C69.82 18.0812 69.8972 18.1791 69.972 18.2833L72.8929 22.358C73.5295 23.2461 74.5358 23.2282 75.1406 22.3181C75.7453 21.408 75.7194 19.9504 75.0828 19.0623L69.0846 10.6948C67.9709 9.14135 65.6471 9.18258 64.5893 10.7746L58.8916 19.3495C61.0414 16.1141 66.1548 13.0296 69.5545 17.7721Z" fill="url(#paint1_linear_5_105097)"/>
<path d="M88.5177 2.58979C90.9135 2.58979 92.91 3.3884 94.5072 4.98561C96.1287 6.58283 96.9394 8.56724 96.9394 10.9389C96.9394 13.2863 96.1287 15.2707 94.5072 16.8921C92.91 18.4893 90.9135 19.2879 88.5177 19.2879H83.3268V28H79.1522V2.58979H88.5177ZM88.5177 15.3675C89.7519 15.3675 90.7683 14.9561 91.5669 14.1333C92.3655 13.2863 92.7648 12.2215 92.7648 10.9389C92.7648 9.65625 92.3655 8.60354 91.5669 7.78074C90.7683 6.93373 89.7519 6.51023 88.5177 6.51023H83.3268V15.3675H88.5177Z" fill="white"/>
<path d="M132.453 7.59507C134.46 7.59507 136.082 8.23674 137.318 9.52008C138.555 10.8034 139.173 12.5651 139.173 14.8051V25.5502H135.393V15.1901C135.393 13.8834 135.043 12.8801 134.343 12.1801C133.643 11.4801 132.687 11.1301 131.473 11.1301C130.143 11.1301 129.07 11.5501 128.253 12.3901C127.437 13.2068 127.028 14.4668 127.028 16.1701V25.5502H123.248V8.05007H127.028V10.2901C128.172 8.49341 129.98 7.59507 132.453 7.59507Z" fill="white"/>
<path d="M98.509 25.5502V0H102.289V25.5502H98.509Z" fill="white"/>
<path d="M117.899 7.59503H121.679V25.0952H117.899V22.5751C116.475 24.5585 114.434 25.5502 111.774 25.5502C109.37 25.5502 107.317 24.6635 105.614 22.8901C103.91 21.0935 103.059 18.9118 103.059 16.3451C103.059 13.7551 103.91 11.5734 105.614 9.80004C107.317 8.0267 109.37 7.14002 111.774 7.14002C114.434 7.14002 116.475 8.12003 117.899 10.08V7.59503ZM108.414 20.3701C109.464 21.4201 110.782 21.9451 112.369 21.9451C113.955 21.9451 115.274 21.4201 116.324 20.3701C117.374 19.2968 117.899 17.9551 117.899 16.3451C117.899 14.7351 117.921 11.785 117.759 11.5151C117.469 11.0317 113.955 10.745 112.369 10.745C110.782 10.745 109.464 11.2817 108.414 12.3551C107.364 13.4051 106.839 14.7351 106.839 16.3451C106.839 17.9551 107.364 19.2968 108.414 20.3701Z" fill="white"/>
<path d="M54.3878 11.4791H50.0478V19.8791C50.0478 20.6025 50.2111 21.1275 50.5378 21.4541C50.8645 21.7575 51.3428 21.9325 51.9728 21.9791C52.6262 22.0025 53.4312 21.9908 54.3878 21.9441V25.3392C51.4945 25.6892 49.4178 25.4442 48.1578 24.6042C46.8978 23.7408 46.2678 22.1658 46.2678 19.8791V11.4791H43.0478V7.83904H46.2678V2.939H50.0478V7.83904H54.3878V11.4791Z" fill="#ECECEC"/>
<path d="M29.8527 17.9551C30.1327 19.2851 30.7744 20.3118 31.7778 21.0351C32.7811 21.7351 34.0061 22.0851 35.4528 22.0851C37.4595 22.0851 38.9645 21.3618 39.9678 19.9151L43.0828 21.7351C41.3562 24.2785 38.8011 25.5502 35.4178 25.5502C32.5711 25.5502 30.2727 24.6868 28.5227 22.9601C26.7727 21.2101 25.8977 19.0051 25.8977 16.3451C25.8977 13.7317 26.761 11.5501 28.4877 9.80004C30.2144 8.0267 32.4311 7.14002 35.1378 7.14002C37.7045 7.14002 39.8045 8.03836 41.4378 9.83504C43.0945 11.6317 43.9228 13.8134 43.9228 16.3801C43.9228 16.7768 43.8762 17.3018 43.7828 17.9551H29.8527ZM29.8177 14.8751H40.1078C39.8511 13.4517 39.2561 12.3784 38.3228 11.6551C37.4128 10.9317 36.3395 10.57 35.1028 10.57C33.7028 10.57 32.5361 10.9551 31.6028 11.7251C30.6694 12.4951 30.0744 13.5451 29.8177 14.8751Z" fill="#ECECEC"/>
<path d="M25.0602 14.8749V16.5549C25.0602 19.9149 23.9518 22.6683 21.7352 24.815C19.5185 26.9383 16.6251 28 13.0551 28C9.27507 28 6.14838 26.775 3.67503 24.325C1.22501 21.8749 0 18.8649 0 15.2949C0 11.7482 1.22501 8.74984 3.67503 6.29982C6.14838 3.82647 9.20507 2.58979 12.8451 2.58979C15.1318 2.58979 17.2201 3.1148 19.1101 4.16481C21.0002 5.21482 22.4702 6.62649 23.5202 8.39984L20.0552 10.3949C19.4018 9.22818 18.4335 8.29484 17.1501 7.59483C15.8668 6.87149 14.4318 6.50983 12.8451 6.50983C10.2784 6.50983 8.16673 7.34983 6.51005 9.02984C4.85337 10.7099 4.02503 12.8099 4.02503 15.3299C4.02503 17.8499 4.85337 19.9383 6.51005 21.5949C8.19006 23.2516 10.3834 24.08 13.0901 24.08C15.2601 24.08 17.0218 23.5783 18.3751 22.5749C19.7518 21.5483 20.6268 20.1833 21.0002 18.4799H12.8101V14.8749H25.0602Z" fill="#ECECEC"/>
<defs>
<linearGradient id="paint0_linear_5_105097" x1="68.1673" y1="18.9539" x2="44.4462" y2="35.0197" gradientUnits="userSpaceOnUse">
<stop stop-color="#ECECEC"/>
<stop offset="1" stop-color="#1D1D1D"/>
</linearGradient>
<linearGradient id="paint1_linear_5_105097" x1="67.893" y1="20.3618" x2="90.6476" y2="32.6153" gradientUnits="userSpaceOnUse">
<stop stop-color="#ECECEC"/>
<stop offset="1" stop-color="#FBE2F1"/>
<stop offset="1" stop-color="white"/>
</linearGradient>
</defs>
</svg>
